<svg width="600" height="600" viewBox="0 0 600 600" fill="none" xmlns="http://www.w3.org/2000/svg">
<path d="M129.27 312.858H137.527V302.744C137.527 300.194 139.594 298.128 142.144 298.128C144.694 298.128 146.76 300.194 146.76 302.744V331.556C146.76 334.302 148.986 336.528 151.732 336.528C154.477 336.528 156.703 334.302 156.703 331.556V279.365C156.703 276.031 159.406 273.328 162.74 273.328C166.075 273.328 168.778 276.03 168.778 279.365V349.276C168.778 352.414 171.322 354.958 174.46 354.958C177.598 354.958 180.142 352.414 180.142 349.276V263.986C180.142 259.867 183.48 256.528 187.6 256.528C191.718 256.528 195.058 259.866 195.058 263.986V348.89C195.058 352.225 197.76 354.928 201.095 354.928C204.43 354.928 207.132 352.225 207.132 348.89V281.23C207.132 277.307 210.312 274.127 214.235 274.127C218.158 274.127 221.338 277.307 221.338 281.23V331.142C221.338 334.085 223.722 336.469 226.664 336.469C229.607 336.469 231.991 334.085 231.991 331.142V304.009C231.991 301.202 234.266 298.927 237.073 298.927C239.88 298.927 242.155 301.202 242.155 304.009V312.85H251.608" stroke="#263238" stroke-miterlimit="10"/>
<path d="M245.07 312.858H253.327V302.744C253.327 300.194 255.393 298.128 257.943 298.128C260.493 298.128 262.56 300.194 262.56 302.744V331.556C262.56 334.302 264.786 336.528 267.531 336.528C270.277 336.528 272.503 334.302 272.503 331.556V279.365C272.503 276.031 275.205 273.328 278.54 273.328C281.875 273.328 284.577 276.03 284.577 279.365V349.276C284.577 352.414 287.121 354.958 290.259 354.958C293.397 354.958 295.941 352.414 295.941 349.276V263.986C295.941 259.867 299.28 256.528 303.399 256.528C307.518 256.528 310.857 259.866 310.857 263.986V348.89C310.857 352.225 313.56 354.928 316.895 354.928C320.229 354.928 322.932 352.225 322.932 348.89V281.23C322.932 277.307 326.112 274.127 330.035 274.127C333.957 274.127 337.137 277.307 337.137 281.23V331.142C337.137 334.085 339.522 336.469 342.464 336.469C345.407 336.469 347.791 334.085 347.791 331.142V304.009C347.791 301.202 350.066 298.927 352.873 298.927C355.68 298.927 357.955 301.202 357.955 304.009V312.85H367.407" stroke="#263238" stroke-miterlimit="10"/>
<path d="M360.87 312.858H369.127V302.744C369.127 300.194 371.194 298.128 373.744 298.128C376.294 298.128 378.36 300.194 378.36 302.744V331.556C378.36 334.302 380.586 336.528 383.332 336.528C386.077 336.528 388.303 334.302 388.303 331.556V279.365C388.303 276.031 391.006 273.328 394.341 273.328C397.674 273.328 400.378 276.03 400.378 279.365V349.276C400.378 352.414 402.922 354.958 406.06 354.958C409.198 354.958 411.742 352.414 411.742 349.276V263.986C411.742 259.867 415.08 256.528 419.2 256.528C423.318 256.528 426.658 259.866 426.658 263.986V348.89C426.658 352.225 429.36 354.928 432.695 354.928C436.03 354.928 438.732 352.225 438.732 348.89V281.23C438.732 277.307 441.912 274.127 445.835 274.127C449.758 274.127 452.938 277.307 452.938 281.23V331.142C452.938 334.085 455.322 336.469 458.265 336.469C461.207 336.469 463.591 334.085 463.591 331.142V304.009C463.591 301.202 465.867 298.927 468.673 298.927C471.48 298.927 473.755 301.202 473.755 304.009V312.85H483.208" stroke="#263238" stroke-miterlimit="10"/>
<path d="M302.655 127.903V116.784L293.026 122.344L302.655 127.903Z" fill="#263238"/>
<path d="M291.574 116.515H289.824V127.884H291.574V116.515Z" fill="#263238"/>
<path d="M353.605 127.903L363.235 122.344L353.605 116.784V127.903Z" fill="#263238"/>
<path d="M366.436 116.515H364.688V127.884H366.436V116.515Z" fill="#263238"/>
<path d="M328.696 106.186C320.517 106.186 313.887 112.816 313.887 120.995C313.887 129.174 320.517 135.804 328.696 135.804C336.875 135.804 343.505 129.174 343.505 120.995C343.505 112.816 336.875 106.186 328.696 106.186ZM326.595 128.8H322.192V113.19H326.595V128.8ZM335.2 128.8H330.797V113.19H335.2V128.8Z" fill="#263238"/>
<path d="M394.277 485.704H380.322V490.778H394.277V485.704Z" fill="#263238"/>
<path d="M394.277 478.514H380.322V483.589H394.277V478.514Z" fill="#263238"/>
<path d="M394.277 471.325H380.322V476.4H394.277V471.325Z" fill="#263238"/>
<path d="M394.277 464.137H380.322V469.212H394.277V464.137Z" fill="#263238"/>
<path d="M430.433 485.704H416.479V490.778H430.433V485.704Z" fill="#263238"/>
<path d="M430.433 478.515H416.479V483.589H430.433V478.515Z" fill="#263238"/>
<path d="M358.122 485.704H344.167V490.778H358.122V485.704Z" fill="#263238"/>
<path d="M358.122 478.515H344.167V483.589H358.122V478.515Z" fill="#263238"/>
<path d="M376.199 485.704H362.244V490.778H376.199V485.704Z" fill="#263238"/>
<path d="M376.199 478.515H362.244V483.589H376.199V478.515Z" fill="#263238"/>
<path d="M376.199 471.325H362.244V476.4H376.199V471.325Z" fill="#263238"/>
<path d="M376.199 464.137H362.244V469.212H376.199V464.137Z" fill="#263238"/>
<path d="M376.199 456.948H362.244V462.023H376.199V456.948Z" fill="#263238"/>
<path d="M376.199 449.759H362.244V454.834H376.199V449.759Z" fill="#263238"/>
<path d="M376.199 442.571H362.244V447.646H376.199V442.571Z" fill="#263238"/>
<path d="M412.355 485.704H398.4V490.778H412.355V485.704Z" fill="#263238"/>
<path d="M412.355 478.514H398.4V483.589H412.355V478.514Z" fill="#263238"/>
<path d="M412.355 471.325H398.4V476.4H412.355V471.325Z" fill="#263238"/>
<path d="M412.355 464.137H398.4V469.212H412.355V464.137Z" fill="#263238"/>
<path d="M412.355 456.948H398.4V462.023H412.355V456.948Z" fill="#263238"/>
<path d="M412.355 449.759H398.4V454.834H412.355V449.759Z" fill="#263238"/>
<path d="M102.346 200.699V216.955" stroke="#263238" stroke-width="3" stroke-miterlimit="10" stroke-linecap="round"/>
<path d="M96.4561 202.844V214.81" stroke="#263238" stroke-width="3" stroke-miterlimit="10" stroke-linecap="round"/>
<path d="M90.5654 202.844V214.81" stroke="#263238" stroke-width="3" stroke-miterlimit="10" stroke-linecap="round"/>
<path d="M161.249 202.844V214.81" stroke="#263238" stroke-width="3" stroke-miterlimit="10" stroke-linecap="round"/>
<path d="M155.358 202.844V214.81" stroke="#263238" stroke-width="3" stroke-miterlimit="10" stroke-linecap="round"/>
<path d="M108.237 200.699V216.955" stroke="#263238" stroke-width="3" stroke-miterlimit="10" stroke-linecap="round"/>
<path d="M114.126 197.833V219.821" stroke="#263238" stroke-width="3" stroke-miterlimit="10" stroke-linecap="round"/>
<path d="M120.017 193.331V224.323" stroke="#263238" stroke-width="3" stroke-miterlimit="10" stroke-linecap="round"/>
<path d="M149.469 200.699V216.955" stroke="#263238" stroke-width="3" stroke-miterlimit="10" stroke-linecap="round"/>
<path d="M143.578 200.699V216.955" stroke="#263238" stroke-width="3" stroke-miterlimit="10" stroke-linecap="round"/>
<path d="M137.688 197.833V219.821" stroke="#263238" stroke-width="3" stroke-miterlimit="10" stroke-linecap="round"/>
<path d="M131.797 193.331V224.323" stroke="#263238" stroke-width="3" stroke-miterlimit="10" stroke-linecap="round"/>
<path d="M125.908 187.6V230.054" stroke="#263238" stroke-width="3" stroke-miterlimit="10" stroke-linecap="round"/>
<path d="M485.735 203.131C484.217 196.672 478.379 191.954 471.635 191.954C464.838 191.954 458.951 196.759 457.495 203.304C450.494 204.36 445.164 210.442 445.164 217.627C445.164 225.178 450.833 231.384 458.348 232.061L458.611 229.147C452.612 228.607 448.088 223.655 448.088 217.627C448.088 211.585 452.812 206.52 458.84 206.096L460.021 206.014L460.186 204.84C460.98 199.163 465.9 194.88 471.632 194.88C477.383 194.88 482.306 199.177 483.084 204.877L483.278 206.293L484.698 206.134C485.125 206.086 485.557 206.056 485.998 206.056C492.379 206.056 497.572 211.248 497.572 217.63C497.572 224.011 492.379 229.202 485.998 229.202V232.128C493.992 232.128 500.496 225.624 500.496 217.63C500.498 209.543 493.842 202.925 485.735 203.131Z" fill="#263238"/>
<path d="M480.946 214.859C480.946 214.397 480.728 213.964 480.359 213.686C479.989 213.41 479.51 213.324 479.068 213.456L463.692 218.011C463.07 218.195 462.646 218.766 462.646 219.414V237.017C462.14 236.821 461.596 236.704 461.021 236.704C458.521 236.704 456.496 238.729 456.496 241.229C456.496 243.728 458.521 245.754 461.021 245.754C463.385 245.754 465.304 243.935 465.506 241.622H465.571V228.193L478.022 224.503V232.277C477.526 232.09 476.993 231.973 476.429 231.973C473.929 231.973 471.904 233.999 471.904 236.498C471.904 238.998 473.929 241.024 476.429 241.024C478.928 241.024 480.954 238.998 480.954 236.498C480.954 236.474 480.948 236.454 480.947 236.43V214.859H480.946ZM478.02 221.454L465.569 225.144V220.507L478.02 216.818V221.454Z" fill="#263238"/>
<path d="M168.104 422.191C157.48 422.191 148.867 430.804 148.867 441.429C148.867 452.053 157.48 460.666 168.104 460.666C178.729 460.666 187.342 452.053 187.342 441.429C187.342 430.804 178.729 422.191 168.104 422.191ZM168.104 448.387C164.262 448.387 161.147 445.272 161.147 441.429C161.147 437.586 164.262 434.471 168.104 434.471C171.947 434.471 175.063 437.586 175.063 441.429C175.063 445.272 171.948 448.387 168.104 448.387Z" fill="#263238"/>
<path d="M168.105 391.903C161.549 391.903 156.235 397.218 156.235 403.773C156.235 410.328 161.55 415.643 168.105 415.643C174.66 415.643 179.975 410.328 179.975 403.773C179.975 397.217 174.66 391.903 168.105 391.903ZM168.105 408.066C165.733 408.066 163.811 406.144 163.811 403.773C163.811 401.401 165.733 399.479 168.105 399.479C170.476 399.479 172.398 401.401 172.398 403.773C172.398 406.144 170.476 408.066 168.105 408.066Z" fill="#263238"/>
<path d="M188.083 466.263H148.126C145.512 466.263 143.394 464.143 143.394 461.531V390.553C143.394 387.94 145.512 385.822 148.126 385.822H188.083C190.697 385.822 192.815 387.94 192.815 390.553V461.531C192.815 464.145 190.697 466.263 188.083 466.263Z" stroke="#263238" stroke-miterlimit="10"/>
<path d="M273.991 181.987C273.991 180.319 276.272 178.52 276.062 176.91C275.847 175.261 273.176 174.112 272.756 172.537C272.328 170.936 274.065 168.607 273.439 167.098C272.805 165.57 269.928 165.155 269.107 163.736C268.28 162.308 269.354 159.607 268.353 158.306C267.35 157.001 264.463 157.342 263.3 156.18C262.137 155.017 262.479 152.13 261.174 151.127C259.872 150.127 257.172 151.2 255.744 150.373C254.325 149.552 253.91 146.675 252.383 146.041C250.873 145.415 248.544 147.152 246.943 146.724C245.369 146.303 244.218 143.633 242.57 143.418C240.96 143.208 239.161 145.489 237.493 145.489C235.825 145.489 234.026 143.208 232.416 143.418C230.767 143.633 229.617 146.304 228.043 146.724C226.441 147.152 224.113 145.415 222.603 146.041C221.076 146.675 220.661 149.552 219.242 150.373C217.814 151.199 215.113 150.126 213.812 151.127C212.507 152.13 212.849 155.017 211.686 156.18C210.523 157.343 207.636 157.001 206.633 158.306C205.633 159.608 206.706 162.308 205.879 163.736C205.058 165.155 202.181 165.57 201.547 167.098C200.921 168.607 202.658 170.936 202.23 172.537C201.809 174.112 199.139 175.261 198.924 176.91C198.714 178.52 200.995 180.319 200.995 181.987C200.995 183.655 198.714 185.453 198.924 187.064C199.139 188.713 201.81 189.863 202.23 191.437C202.658 193.039 200.921 195.367 201.547 196.877C202.181 198.404 205.058 198.82 205.879 200.238C206.705 201.666 205.632 204.367 206.633 205.668C207.636 206.974 210.523 206.633 211.686 207.794C212.849 208.957 212.507 211.844 213.812 212.848C215.114 213.847 217.814 212.774 219.242 213.601C220.661 214.422 221.076 217.3 222.603 217.933C224.113 218.56 226.442 216.822 228.043 217.25C229.617 217.672 230.767 220.342 232.416 220.556C234.026 220.766 235.825 218.485 237.493 218.485C239.161 218.485 240.96 220.766 242.57 220.556C244.219 220.342 245.369 217.67 246.943 217.25C248.545 216.822 250.873 218.56 252.383 217.933C253.91 217.3 254.325 214.422 255.744 213.601C257.172 212.776 259.873 213.848 261.174 212.848C262.479 211.844 262.137 208.957 263.3 207.794C264.463 206.632 267.35 206.974 268.353 205.668C269.353 204.366 268.28 201.666 269.107 200.238C269.928 198.82 272.805 198.404 273.439 196.877C274.065 195.367 272.328 193.038 272.756 191.437C273.177 189.863 275.847 188.713 276.062 187.064C276.272 185.453 273.991 183.655 273.991 181.987Z" fill="#263238" stroke="#263238" stroke-miterlimit="10" stroke-linecap="round" stroke-linejoin="round"/>
<path d="M217.423 193.707C216.962 193.707 216.523 193.441 216.325 192.992C215.435 190.98 214.79 188.843 214.411 186.639C212.076 173.094 220.289 160.329 232.721 158.186C245.153 156.042 257.166 165.32 259.501 178.865C259.635 179.647 259.737 180.437 259.802 181.213C259.857 181.873 259.368 182.454 258.707 182.51C258.032 182.559 257.466 182.075 257.409 181.415C257.351 180.707 257.258 179.987 257.135 179.273C255.024 167.031 244.259 158.637 233.127 160.55C222.001 162.469 214.664 173.989 216.775 186.23C217.122 188.239 217.709 190.188 218.52 192.02C218.789 192.626 218.514 193.335 217.908 193.603C217.749 193.675 217.585 193.707 217.423 193.707Z" fill="white" stroke="#263238" stroke-miterlimit="10"/>
<path d="M297.887 366.426C297.887 366.426 346.64 354.48 361.841 340.08C361.841 340.08 357.44 362.88 365.441 374.88C373.441 386.88 405.366 418.633 410.966 425.034C416.567 431.434 427.04 446.48 430.241 446.08C433.441 445.68 442.241 431.28 445.04 427.279C447.84 423.28 452.708 420.744 453.508 413.944C454.308 407.143 450.307 406.744 448.708 408.744C447.108 410.744 438.846 416.996 433.646 418.597C428.447 420.197 422.82 422.068 422.82 422.068C422.82 422.068 410.221 404.858 400.621 384.858C391.021 364.858 381.041 327.278 377.842 319.679C374.641 312.079 369.841 309.679 363.841 309.679C357.841 309.679 338.641 309.679 305.041 324.479C271.441 339.278 272.641 353.678 275.842 358.879C279.041 364.08 287.041 368.479 297.887 366.426Z" fill="#263238" stroke="#263238" stroke-miterlimit="10" stroke-linecap="round" stroke-linejoin="round"/>
<path d="M453.509 413.945C454.309 407.144 450.308 406.745 448.709 408.745C447.109 410.746 438.847 416.998 433.647 418.598C428.448 420.198 422.821 422.069 422.821 422.069C422.821 422.069 413.01 408.665 404.106 391.77C399.831 398.426 394.388 401.834 390.497 403.528C399.671 413.197 408.301 421.988 410.966 425.035C416.567 431.435 427.041 446.482 430.241 446.081C433.441 445.681 442.241 431.281 445.04 427.28C447.841 423.28 452.708 420.745 453.509 413.945Z" fill="#D9D9D9" stroke="#263238" stroke-miterlimit="10" stroke-linecap="round" stroke-linejoin="round"/>
<path d="M236.663 213.511C236.663 213.511 241.935 224.349 242.521 227.865C243.107 231.38 239.006 233.431 234.905 234.309C230.803 235.188 224.359 232.844 217.914 240.168C211.47 247.491 195.65 279.422 193.307 284.402C190.963 289.382 193.307 293.484 199.752 292.311C206.197 291.139 223.479 268.29 223.479 268.29C223.479 268.29 244.863 294.361 247.501 299.928C250.137 305.493 249.259 314.868 248.673 324.535C248.088 334.202 246.623 348.263 255.411 359.688C264.2 371.113 282.655 374.335 297.888 366.426C313.121 358.517 329.565 331.212 322.242 320.079C314.918 308.948 298.475 303.444 293.495 292.898C288.515 282.353 290.243 276.518 290.243 265.68C290.243 254.841 287.843 240.879 287.843 240.879C287.843 240.879 313.043 234.879 342.242 230.88C352.4 229.488 346.051 217.991 340.191 215.647C332.843 212.707 300.313 216.111 291.443 215.28C278.642 214.08 272.111 216.734 269.181 218.784C266.252 220.835 262.443 223.764 259.221 223.471C255.999 223.178 252.483 207.36 252.483 207.36C252.483 207.36 243.986 214.389 236.663 213.511Z" fill="white" stroke="#263238" stroke-miterlimit="10" stroke-linecap="round" stroke-linejoin="round"/>
<path d="M305.234 215.139C304.404 215.174 303.596 215.205 302.802 215.235C302.636 220.327 303.291 228.704 308.048 236.595C308.869 236.436 309.715 236.273 310.573 236.109C305.696 228.481 305.076 220.061 305.234 215.139Z" fill="#263238"/>
<path d="M291.657 288.342C291.396 287.557 291.164 286.791 290.973 286.046C272.822 290.077 257.455 301.833 249.264 309.188C249.298 310.229 249.306 311.305 249.289 312.411C256.773 305.426 272.696 292.482 291.657 288.342Z" fill="#263238"/>
<path d="M245.268 296.322C245.8 297.096 246.259 297.793 246.637 298.401C252.047 293.062 265.795 281.655 289.992 274.68C290.016 273.849 290.05 272.992 290.083 272.118C265.248 279.05 251.144 290.534 245.268 296.322Z" fill="#263238"/>
<path d="M227.423 256.315C231.731 255.853 252.272 252.726 282.132 233.468C284.468 238.044 286.655 241.271 286.85 241.556C287.083 241.896 287.459 242.079 287.841 242.079C287.905 242.079 287.969 242.061 288.032 242.051C287.913 241.304 287.84 240.879 287.84 240.879C287.84 240.879 288.243 240.783 289.003 240.608C288.971 240.467 288.918 240.329 288.83 240.201C288.733 240.06 279.637 226.637 278.72 215.441C277.875 215.567 277.08 215.711 276.344 215.875C276.543 218.061 277.019 220.301 277.661 222.504C255.103 238.944 232.807 242.311 226.781 242.942C226.184 239.82 225.373 237.277 224.682 235.455C223.95 235.703 223.207 236.023 222.456 236.436C223.045 238.037 223.731 240.225 224.269 242.892C222.836 241.191 221.102 239.825 219.33 238.722C218.858 239.16 218.385 239.63 217.914 240.168C217.823 240.271 217.724 240.396 217.631 240.509C220.97 242.493 224.197 245.481 225.129 249.839C225.234 252.036 225.183 254.4 224.917 256.892C223.239 253.603 219.843 249.103 213.297 246.794C212.889 247.455 212.471 248.148 212.045 248.861C222.066 252.072 223.959 260.784 224.064 261.308C224.083 261.405 224.127 261.489 224.167 261.576C223.891 262.868 223.55 264.185 223.139 265.524C220.939 262.466 216.107 257.159 208.251 255.468C207.852 256.185 207.452 256.909 207.05 257.641C216.396 259.26 221.096 266.51 222.173 268.395C221.819 269.373 221.495 270.318 221.175 271.255C222.603 269.45 223.482 268.29 223.482 268.29C223.482 268.29 223.805 268.683 224.367 269.375C224.448 269.15 224.526 268.929 224.609 268.703C226.208 264.329 227.065 260.162 227.423 256.315ZM278.429 224.904C279.209 227.148 280.125 229.313 281.065 231.301C252.675 249.656 232.434 253.244 227.581 253.871C227.628 252.735 227.635 251.631 227.605 250.563C227.641 250.413 227.651 250.254 227.625 250.092C227.615 250.027 227.598 249.966 227.587 249.902C227.52 248.282 227.371 246.751 227.172 245.313C233.631 244.614 255.859 241.111 278.429 224.904Z" fill="#263238"/>
<path d="M297.861 298.855C297.225 298.212 296.622 297.557 296.069 296.88C275.184 302.831 258.699 314.695 248.744 323.384C248.72 323.768 248.696 324.151 248.672 324.536C248.629 325.256 248.58 326.007 248.532 326.773C258.192 318.031 275.526 304.925 297.861 298.855Z" fill="#263238"/>
<path d="M290.2 263.154C290.176 262.361 290.142 261.559 290.1 260.754C259.304 262.392 244.122 278.161 238.122 286.666C238.637 287.333 239.147 287.996 239.645 288.65C244.978 280.777 259.498 264.79 290.2 263.154Z" fill="#263238"/>
<path d="M321.242 214.517C320.418 214.538 319.587 214.562 318.75 214.59C318.047 219.687 318.048 226.725 320.966 234.21C321.771 234.069 322.585 233.929 323.408 233.789C320.461 226.433 320.532 219.437 321.242 214.517Z" fill="#263238"/>
<path d="M288.302 215.062C289.188 221.154 291.248 230.437 296.023 239.054C296.798 238.887 297.629 238.712 298.499 238.529C293.831 230.34 291.725 221.287 290.786 215.228C289.928 215.156 289.101 215.101 288.302 215.062Z" fill="#263238"/>
<path d="M289.146 250.083C289.046 249.247 288.944 248.449 288.846 247.692C253.97 251.887 236.467 266.694 229.097 275.226C229.603 275.856 230.129 276.512 230.671 277.193C237.643 269.124 254.834 254.267 289.146 250.083Z" fill="#263238"/>
<path d="M297.887 366.426C310.493 359.881 323.912 340.062 324.023 327.109C323.934 324.658 323.359 322.469 322.2 320.683C321.216 319.168 320.126 317.606 318.977 316.019C314.971 311.794 309.786 308.346 305.029 304.841C278.561 314.812 257.35 334.88 248.688 342.673C249.454 348.443 251.306 354.353 255.412 359.689C264.199 371.113 282.654 374.335 297.887 366.426Z" fill="#263238" stroke="#263238" stroke-miterlimit="10" stroke-linecap="round" stroke-linejoin="round"/>
<path d="M218.952 189.287C218.437 189.312 217.929 189.409 217.436 189.583C213.469 190.981 211.91 196.816 213.954 202.614C215.997 208.412 220.87 211.979 224.838 210.581C225.674 210.286 226.395 209.785 227.007 209.137L218.952 189.287Z" fill="white" stroke="#263238" stroke-miterlimit="10" stroke-linecap="round" stroke-linejoin="round"/>
<path d="M218.952 189.287C218.437 189.312 217.929 189.409 217.436 189.583C216.981 189.744 216.562 189.968 216.172 190.238L224.592 210.647C224.673 210.623 224.757 210.608 224.838 210.58C225.674 210.284 226.395 209.784 227.007 209.136L218.952 189.287Z" fill="white" stroke="#263238" stroke-miterlimit="10" stroke-linecap="round" stroke-linejoin="round"/>
<path d="M255.104 177.233C255.52 176.929 255.976 176.687 256.47 176.512C260.436 175.11 265.311 178.674 267.36 184.471C269.407 190.268 267.853 196.103 263.886 197.504C263.049 197.8 262.173 197.862 261.291 197.742L255.104 177.233Z" fill="white" stroke="#263238" stroke-miterlimit="10" stroke-linecap="round" stroke-linejoin="round"/>
<path d="M255.104 177.234C255.52 176.931 255.976 176.687 256.47 176.513C256.924 176.352 257.391 176.265 257.864 176.23L264.118 197.403C264.039 197.435 263.966 197.477 263.884 197.505C263.048 197.8 262.172 197.862 261.29 197.742L255.104 177.234Z" stroke="#263238" stroke-miterlimit="10" stroke-linecap="round" stroke-linejoin="round"/>
<path d="M265.452 221.33C263.378 222.623 261.189 223.651 259.219 223.471C255.997 223.178 252.481 207.36 252.481 207.36C252.481 207.36 243.986 214.391 236.663 213.511C236.663 213.511 241.935 224.349 242.521 227.865C242.995 230.712 240.397 232.597 237.213 233.678C238.74 238.167 243.71 248.433 256.64 245.28C267.966 242.517 267.083 229.268 265.452 221.33Z" fill="#D9D9D9" stroke="#263238" stroke-miterlimit="10" stroke-linecap="round" stroke-linejoin="round"/>
<path d="M255.023 216.451C254.322 214.401 253.717 212.265 253.273 210.576C252.902 209.609 252.549 208.586 252.221 207.565C250.795 208.683 243.264 214.302 236.663 213.51C236.663 213.51 238.445 217.176 240.051 220.935C242.881 221.777 246.866 222.423 249.999 220.799C251.96 219.783 253.652 218.139 255.023 216.451Z" fill="#263238" stroke="#263238" stroke-miterlimit="10" stroke-linecap="round" stroke-linejoin="round"/>
<path d="M219.672 185.389C219.672 185.389 223.773 202.965 226.702 207.653C229.632 212.34 240.177 217.905 245.157 218.491C250.137 219.077 253.652 212.925 256.582 207.945C259.512 202.965 260.39 198.864 259.219 192.42C258.046 185.976 254.239 175.722 251.31 170.156C249.409 166.545 240.471 162.833 232.268 164.883C224.066 166.933 218.208 176.015 219.672 185.389Z" fill="#D9D9D9" stroke="#263238" stroke-miterlimit="10" stroke-linecap="round" stroke-linejoin="round"/>
<path d="M238.127 195.349C238.127 195.349 238.713 191.834 243.4 193.298" stroke="#263238" stroke-miterlimit="10" stroke-linecap="round" stroke-linejoin="round"/>
<path d="M235.197 201.208C235.197 201.208 243.399 205.895 249.259 196.228" stroke="#263238" stroke-miterlimit="10" stroke-linecap="round" stroke-linejoin="round"/>
<path d="M227.581 193.884C227.581 193.884 230.803 195.642 234.905 191.248" stroke="#263238" stroke-width="2" stroke-miterlimit="10" stroke-linecap="round" stroke-linejoin="round"/>
<path d="M243.986 187.733C243.986 187.733 250.137 189.783 251.895 185.096" stroke="#263238" stroke-width="2" stroke-miterlimit="10" stroke-linecap="round" stroke-linejoin="round"/>
<path d="M225.531 188.318C225.531 188.318 224.928 180.761 232.59 181.68" stroke="#263238" stroke-miterlimit="10" stroke-linecap="round" stroke-linejoin="round"/>
<path d="M240.764 178.944C240.764 178.944 244.279 175.135 249.553 178.358" stroke="#263238" stroke-miterlimit="10" stroke-linecap="round" stroke-linejoin="round"/>
<path d="M209.419 193.591C209.419 193.591 208.541 202.673 209.419 205.016C210.298 207.36 218.208 216.148 219.672 218.198C221.137 220.249 221.43 220.542 218.501 226.108C215.572 231.673 191.257 267.706 190.379 276.786C189.5 285.868 190.086 294.07 199.753 292.312C209.42 290.554 214.986 266.24 219.088 252.472C223.189 238.704 227.582 220.834 227.582 217.026C227.582 213.217 215.266 203.726 213.954 202.613C212.642 201.5 212.057 196.52 212.057 193.884C212.056 191.248 210.592 191.248 209.419 193.591Z" fill="#D9D9D9" stroke="#263238" stroke-miterlimit="10" stroke-linecap="round" stroke-linejoin="round"/>
<path d="M219.086 252.473C219.493 251.106 219.902 249.7 220.311 248.27L207.818 243.368C200.047 255.888 190.91 271.284 190.377 276.787C189.499 285.869 190.085 294.071 199.752 292.313C209.419 290.555 214.985 266.24 219.086 252.473Z" fill="white" stroke="#263238" stroke-miterlimit="10" stroke-linecap="round" stroke-linejoin="round"/>
<path d="M202.212 252.559C202.162 252.642 202.112 252.725 202.063 252.807C201.944 253.008 201.825 253.207 201.706 253.407C201.444 253.849 201.184 254.289 200.925 254.73C204.135 255.48 209.63 257 216.961 259.872C217.185 259.083 217.405 258.311 217.621 257.551C210.79 254.881 205.545 253.369 202.212 252.559Z" fill="#263238"/>
<path d="M206.414 287.075C206.934 286.327 207.436 285.516 207.926 284.652C199.911 284.807 193.978 283.343 190.092 281.88C190.088 282.793 190.123 283.673 190.198 284.511C194.026 285.843 199.408 287.051 206.414 287.075Z" fill="#263238"/>
<path d="M194.638 266.011C194.533 266.216 194.425 266.424 194.323 266.625C194.211 266.846 194.097 267.069 193.988 267.285C193.81 267.642 193.647 267.983 193.479 268.327C198.208 268.796 205.373 270.087 212.732 273.565C212.998 272.807 213.259 272.04 213.514 271.268C206.375 267.92 199.491 266.556 194.638 266.011Z" fill="#263238"/>
<path d="M263.862 172.95C263.862 172.95 271.322 178.202 272.527 180.396C273.732 182.59 275.243 194.316 275.843 196.764C276.443 199.211 276.474 199.625 282.605 201.03C288.735 202.435 331.909 207.479 339.369 212.73C346.83 217.982 352.669 223.772 345.036 229.958C337.403 236.144 315.335 224.52 302.219 218.657C289.104 212.794 272.687 204.48 269.798 201.998C266.91 199.517 267.738 183.989 267.749 182.269C267.759 180.55 264.365 176.86 262.364 175.141C260.366 173.422 261.321 172.31 263.862 172.95Z" fill="#D9D9D9" stroke="#263238" stroke-miterlimit="10" stroke-linecap="round" stroke-linejoin="round"/>
<path d="M302.22 218.657C300.918 218.075 299.583 217.469 298.233 216.847L302.658 204.177C317.219 206.444 334.849 209.547 339.371 212.731C346.831 217.983 352.67 223.773 345.037 229.959C337.403 236.144 315.335 224.52 302.22 218.657Z" fill="white" stroke="#263238" stroke-miterlimit="10" stroke-linecap="round" stroke-linejoin="round"/>
<path d="M322.29 227.557C323.041 227.851 323.79 228.135 324.534 228.409L331.838 209.808C331.336 209.67 330.814 209.532 330.281 209.395C330.168 209.366 330.055 209.337 329.941 209.309C329.797 209.273 329.645 209.237 329.5 209.199L322.29 227.557Z" fill="#263238"/>
<path d="M317.754 206.714C317.546 206.676 317.338 206.637 317.129 206.599C316.578 206.498 316.024 206.397 315.468 206.298L309.155 221.838C309.714 222.096 310.28 222.356 310.852 222.619C311.014 222.693 311.176 222.768 311.338 222.842L317.88 206.738C317.838 206.731 317.797 206.723 317.754 206.714Z" fill="#263238"/>
<path d="M343.123 215.579C341.505 219.241 338.526 225.878 335.76 231.483C336.65 231.607 337.507 231.683 338.327 231.708C340.829 226.591 343.412 220.859 345.001 217.271C344.424 216.701 343.793 216.137 343.123 215.579Z" fill="#263238"/>
<path d="M423.62 426.068C426.02 427.268 428.021 429.668 428.021 429.668C428.021 429.668 426.937 432.587 420.468 437.6C424.765 441.869 428.609 446.285 430.242 446.081C433.442 445.681 442.242 431.281 445.041 427.28C447.841 423.281 452.708 420.745 453.509 413.945C454.309 407.144 450.308 406.745 448.709 408.745C447.109 410.745 437.315 417.305 432.115 418.904C426.915 420.504 422.821 422.069 422.821 422.069C422.821 422.069 421.22 424.868 423.62 426.068Z" fill="white" stroke="#263238" stroke-miterlimit="10" stroke-linecap="round" stroke-linejoin="round"/>
<path d="M452.455 408.418C451.425 416.642 448.82 419.307 439.245 429.619C431.772 437.667 428.887 442.648 427.783 445.101C428.827 445.78 429.678 446.151 430.24 446.08C433.441 445.681 442.24 431.281 445.04 427.28C447.84 423.28 452.707 420.745 453.507 413.944C453.852 411.028 453.309 409.297 452.455 408.418Z" fill="white" stroke="#263238" stroke-miterlimit="10" stroke-linecap="round" stroke-linejoin="round"/>
<path d="M271.942 336.528C271.942 336.528 273.243 335.576 275.408 334.032" stroke="white" stroke-miterlimit="10" stroke-linecap="round" stroke-linejoin="round"/>
<path d="M267.44 339.28C267.44 339.28 307.04 308.88 337.84 297.679C368.641 286.48 379.04 294.079 377.041 304.879C375.04 315.679 361.041 350.479 350.241 369.679C339.441 388.879 321.04 420.48 321.04 420.48C321.04 420.48 338.641 444.88 340.24 447.68C341.84 450.48 330.241 450.881 325.441 448.08C321.625 445.854 321.697 446.305 313.441 440.88C299.45 431.686 298.642 428.084 300.637 424.886C307.036 414.626 314.749 406.049 317.841 393.68C323.462 371.2 333.868 342.097 335.041 345.281C335.041 345.281 321.04 359.681 299.841 366.881C278.641 374.081 264.822 372.221 255.411 359.689" fill="#263238"/>
<path d="M267.44 339.28C267.44 339.28 307.04 308.88 337.84 297.679C368.641 286.48 379.04 294.079 377.041 304.879C375.04 315.679 361.041 350.479 350.241 369.679C339.441 388.879 321.04 420.48 321.04 420.48C321.04 420.48 338.641 444.88 340.24 447.68C341.84 450.48 330.241 450.881 325.441 448.08C321.625 445.854 321.697 446.305 313.441 440.88C299.45 431.686 298.642 428.084 300.637 424.886C307.036 414.626 314.749 406.049 317.841 393.68C323.462 371.2 333.868 342.097 335.041 345.281C335.041 345.281 321.04 359.681 299.841 366.881C278.641 374.081 264.822 372.221 255.411 359.689" stroke="#263238" stroke-miterlimit="10" stroke-linecap="round" stroke-linejoin="round"/>
<path d="M280.622 330.359C288.416 324.931 299.872 317.244 308.138 312.946" stroke="white" stroke-miterlimit="10" stroke-linecap="round" stroke-linejoin="round"/>
<path d="M320.752 355.723L331.172 346.949C331.172 346.949 337.753 322.27 353.658 309.656" stroke="white" stroke-miterlimit="10" stroke-linecap="round" stroke-linejoin="round"/>
<path d="M363.529 342.012L361.335 347.497" stroke="white" stroke-miterlimit="10" stroke-linecap="round" stroke-linejoin="round"/>
<path d="M373.4 317.334L365.458 337.19" stroke="white" stroke-miterlimit="10" stroke-linecap="round" stroke-linejoin="round"/>
<path d="M325.441 448.08C330.241 450.88 341.841 450.48 340.24 447.68C338.641 444.881 321.04 420.48 321.04 420.48C321.04 420.48 325.912 412.111 332.112 401.377C324.385 400.381 320.046 397.106 317.676 394.274C314.487 406.321 306.932 414.794 300.637 424.888C298.641 428.086 299.45 431.687 313.441 440.881C321.697 446.305 321.624 445.854 325.441 448.08Z" fill="#D9D9D9" stroke="#263238" stroke-miterlimit="10" stroke-linecap="round" stroke-linejoin="round"/>
<path d="M321.041 420.48C321.041 420.48 319.441 419.28 317.441 422.48C315.44 425.681 314.24 428.88 314.24 428.88L304.958 418.344C303.497 420.482 302.035 422.643 300.636 424.886C298.64 428.084 299.449 431.685 313.44 440.88C321.696 446.305 321.624 445.854 325.44 448.08C330.24 450.879 341.84 450.48 340.239 447.68C338.641 444.879 321.041 420.48 321.041 420.48Z" fill="white" stroke="#263238" stroke-miterlimit="10" stroke-linecap="round" stroke-linejoin="round"/>
<path d="M313.441 440.879C321.697 446.305 321.625 445.853 325.441 448.079C329.761 450.599 339.582 450.526 340.339 448.445C322.129 447.484 307.027 432.981 300.343 425.404C298.769 428.487 300.2 432.178 313.441 440.879Z" fill="white" stroke="#263238" stroke-miterlimit="10" stroke-linecap="round" stroke-linejoin="round"/>
</svg>
